<?xml version="1.0" encoding="UTF-8" standalone="no"?>
<!-- Created with Inkscape (http://www.inkscape.org/) -->

<svg
   version="1.1"
   id="svg2"
   width="546.1333"
   height="546.1333"
   viewBox="0 0 546.1333 546.1333"
   xmlns="http://www.w3.org/2000/svg"
   xmlns:svg="http://www.w3.org/2000/svg">
  <defs
     id="defs6" />
  <g
     id="g8">
    <path
       style="fill:#fafafa;fill-opacity:1;stroke-width:1.06667"
       d="M 42.21755,544.28458 C 15.35078,538.43887 -3.0388004,511.95794 1.1215296,485.10644 c 0.6784,-4.37853 2.75035,-11.33853 4.60434,-15.46667 3.20745,-7.14183 5.9007004,-10.04605 55.5513604,-59.90288 36.82065,-36.97354 53.59594,-53.10407 56.98909,-54.79868 6.03014,-3.01161 16.67461,-3.97743 23.32238,-2.11617 l 4.91731,1.37676 16.56642,-16.56641 16.56641,-16.56642 -4.62934,-6.79929 C 135.5874,256.36583 130.39209,178.42762 161.67741,114.26326 172.83459,91.380524 182.96549,77.134119 200.67238,59.427229 232.51189,27.587725 270.43371,8.6888789 316.44587,1.7299639 c 11.3787,-1.72092004 42.442,-1.70690704 54.4,0.02454 45.6258,6.6063489 83.561,25.5180091 115.7446,57.7016111 32.2703,32.270283 51.0349,69.914025 57.6963,115.744615 1.736,11.94366 1.7531,43.00637 0.03,54.39999 -6.9584,46.00848 -25.7666,83.75222 -57.7064,115.80355 -34.3577,34.47761 -76.7082,54.11611 -126.4863,58.65338 -44.0157,4.01202 -92.13669,-8.36861 -128.34401,-33.02055 l -6.79928,-4.62933 -16.56642,16.5664 -16.56641,16.56643 1.37675,4.9173 c 1.85836,6.6374 0.89529,17.29254 -2.10623,23.30248 -1.67661,3.35711 -17.89941,20.26168 -54.26535,56.54593 -56.66944,56.54214 -56.86428,56.70335 -72.54362,60.02682 -8.57195,1.81694 -13.5685,1.80596 -22.09181,-0.0485 z m 22.72166,-22.01237 c 5.79449,-2.12303 9.29906,-5.38049 57.10668,-53.0802 l 50.93333,-50.81837 v -4.75168 c 0,-4.7246 -0.10208,-4.85372 -17.90145,-22.65313 -17.79941,-17.79942 -17.92853,-17.90145 -22.65313,-17.90145 h -4.75168 l -50.81837,50.93333 c -47.69971,47.80761 -50.95718,51.31218 -53.0802,57.10667 -9.51963,25.98252 15.18231,50.68446 41.16482,41.16483 z m 301.85206,-140.1833 c 40.4948,-5.29234 75.9232,-22.75679 104.8546,-51.68819 30.9847,-30.98468 48.7,-69.34401 52.5063,-113.69315 1.9813,-23.08493 -0.9603,-48.19078 -8.3625,-71.37351 -3.9704,-12.43455 -16.4071,-36.86232 -24.6895,-48.494473 -9.2498,-12.990594 -29.0215,-32.742246 -41.8624,-41.819818 -93.051,-65.780428 -221.43616,-31.952379 -269.89489,71.114291 -8.30093,17.6552 -12.76402,33.06517 -15.38519,53.1213 -10.20991,78.12225 31.43512,153.60262 103.42152,187.44836 30.87899,14.51834 65.29276,19.84428 99.41206,15.38519 z m -34.8787,-20.41648 c -27.44331,-2.03301 -57.17311,-12.64924 -80.13108,-28.61408 -12.38248,-8.6107 -32.03019,-28.5945 -40.22877,-40.91691 -18.61071,-27.97176 -27.24183,-56.58968 -27.22653,-90.27405 0.01,-20.0235 1.76375,-31.18683 7.78321,-49.51816 7.16697,-21.82583 13.57631,-32.08183 20.04909,-32.08183 5.48091,0 10.95406,5.28086 10.95406,10.5692 0,1.06452 -1.88623,5.96193 -4.19163,10.88315 -9.8085,20.93768 -13.37542,36.99454 -13.36137,60.14764 0.0112,18.54759 2.12079,31.47832 7.64264,46.8467 16.72964,46.56174 57.10384,80.90251 105.74858,89.94578 13.9066,2.58529 38.3043,2.28206 52.1443,-0.64806 26.233,-5.5539 48.3797,-17.03306 67.4215,-34.94629 29.9062,-28.13357 45.4206,-66.38216 43.4278,-107.0648 -1.7606,-35.93944 -15.0107,-65.71374 -40.6536,-91.35246 -17.0336,-17.030815 -32.9006,-26.949463 -54.3424,-33.970116 -17.0593,-5.585681 -30.1223,-7.348298 -49.0788,-6.622287 -21.344,0.817444 -36.51221,4.623912 -56.39431,14.152155 -9.30332,4.458494 -11.48101,4.536256 -15.92165,0.568544 -2.81563,-2.515774 -3.45925,-3.889137 -3.45925,-7.381467 0,-5.533656 2.22728,-7.959508 11.68485,-12.726645 29.88708,-15.064731 67.31006,-19.876874 101.14126,-13.005565 59.4608,12.076806 107.0192,56.433161 122.885,114.611191 22.3114,81.81347 -23.1388,166.7707 -103.4929,193.45311 -20.0053,6.64294 -42.0645,9.45169 -62.4,7.94525 z M 234.31255,106.49939 c -3.98321,-1.70567 -6.35152,-5.3945 -6.35152,-9.893018 0,-3.49233 0.64362,-4.865693 3.45925,-7.381467 1.90259,-1.699962 4.6291,-3.090841 6.0589,-3.090841 6.2124,0 11.23337,4.974864 11.23337,11.130201 0,5.913355 -8.87114,11.602665 -14.4,9.235125 z m -40.81919,261.52098 14.67509,-14.64699 -7.70767,-7.75946 -7.70767,-7.75945 -14.68695,14.65883 c -8.07781,8.06236 -14.68694,15.13235 -14.68694,15.71109 0,1.39702 12.96684,14.44299 14.35538,14.44299 0.59602,0 7.68747,-6.59115 15.75876,-14.64701 z"
       id="path1210" />
  </g>
</svg>
